<?xml version="1.0" encoding="UTF-8"?>
<svg id="Layer_1" data-name="Layer 1" xmlns="http://www.w3.org/2000/svg" xmlns:xlink="http://www.w3.org/1999/xlink" viewBox="0 0 1981.99 1603.18">
  <defs>
    <style>
      .cls-1 {
        fill: url(#linear-gradient);
        stroke-width: 0px;
      }
    </style>
    <linearGradient id="linear-gradient" x1="-10.95" y1="1071.56" x2="1810.39" y2="289.91" gradientUnits="userSpaceOnUse">
      <stop offset="0" stop-color="#974140"/>
      <stop offset=".2" stop-color="#af5442"/>
      <stop offset=".55" stop-color="#d57345"/>
      <stop offset=".83" stop-color="#ed8647"/>
      <stop offset="1" stop-color="#f68d48"/>
    </linearGradient>
  </defs>
  <path class="cls-1" d="M1275.48,1250c-97.36,139.92-227.11,238.38-386.49,296.91-210.93,77.46-420.42,79.61-624.7-22.8-111.96-56.13-194.17-141.82-248.05-256.22-27.65-58.7-19.56-108.15,21.06-154.48,12.49-14.24,13.27-26.07,8.59-43.71-11.1-41.84-22.48-83.78-20.49-128.18,1.39-30.96,19.21-58.67,48.75-68.2,9.63-3.11,19.11-10.31,28.44-9.95,20.2.78,19.63-11.05,19.59-24.8-.19-65.38,2.01-130.86-.79-196.12-2.32-54.09,35.34-113.85,104.52-116.55,42.48,1.97,74.02,22.15,96.3,57.77,8.56,22.76,12.14,46.07,10.63,70.53-2.44,39.52-1.06,79.14,2.67,118.5,3.82,40.4,8.85,80.78,21.86,119.65,42.98-18.58,83.69-36.85,125.01-53.63,12.59-5.11,14.58-11.55,11.52-23.44-9.59-37.31-7.92-74.92-1.3-112.5,12.25-44.39,30.87-85.57,60.06-121.68,8.18-10.12,13.48-14.85,25.48-2.79,29.4,29.54,30.18,28.85,7.14,64.02-27.89,42.58-38.44,89.18-33.84,139.73,1.81,19.92,6.09,28.01,29.48,19.41,142.92-52.49,289.28-92.45,440.68-111.31,77.77-9.69,155.86-15.29,233.62,2.37,15.56,3.53,32.6,19.64,45.15,10.68,11.77-8.4-1.88-28.17-.25-43.44,4.59-43,24.75-75.11,64.03-93.09,157.6-72.13,315.53-143.55,473.28-215.36,35.9-16.34,70.49-15.75,101.33,10.16,31.18,26.19,47.26,60.7,42.38,101.62-3.8,31.93-22.82,55.36-51.87,69.47-147.67,71.79-295.44,143.37-443.22,214.93-12.86,6.23-26.54,10.92-38.93,17.93-26.13,14.76-52.28,13.77-79.12,2.9-4.37-1.77-8.82-6.82-13.9-2.02-3.98,3.76-.52,7.83.65,11.76,50.43,168.38,14.69,322.46-77.6,467.15-.88,1.38-1.12,3.17-1.66,4.77ZM1080.63,984.72c13.31-7.75,25.97-17.01,40.04-22.95,39.37-16.61,47.88-50.24,50.99-87.49,1.69-20.27-7-34.25-27.18-36.65-19.11-2.27-31.52,9.6-33.83,27.88-5.1,40.33-19.43,77.8-32.69,115.68-1.03,1-3.11,2.5-2.91,2.93,1.35,2.9,3.53,1.9,5.57.6ZM731.91,818.12c-50.27,14.03-99.64,30.62-149.83,49.59,6.92,10.39,11.02,19.39,17.62,25.84,13.03,12.73,8.45,20.31-3.87,30.35-34.43,28.06-34.03,28.58-58.53-8.7-2.83-4.3-5.77-8.61-7.96-13.25-4.79-10.14-11.68-10.5-21.02-6.3-39.18,17.61-78.42,35.13-117.9,52.03-10.98,4.7-13.54,9.76-8.48,21.21,46.84,105.85,123.89,175.76,238.07,202.36,10.7,2.49,20.19.41,30.21-2.71,93.64-29.18,185.12-63.98,274.73-103.87,18.7-8.32,34.19-19.27,45.04-36.61,29.45-28.91,46.77-65.06,61.62-102.74,10.47-26.56,12.86-55.08,20.34-82.32,11.41-41.59,47.23-68.26,89.31-68.26,40.85,0,77.34,26.52,89.03,65.58,3.02,10.08,3.85,20.81,6.26,34.48,17.81-17,32.38-32.33,43.54-50.66,20.46-33.63,14.77-51.76-22.06-65.02-39.39-14.18-80.76-16.41-122.08-15.01-138.3,4.66-272.37,32.98-404.05,74.03ZM1182.23,1266.12c91.48-107.49,138.01-230.47,131.9-376.81-6.77,4.98-9.66,6.53-11.81,8.78-52.79,55.21-115.27,97.66-180.85,135.64-43,24.9-87.24,47.65-130.93,71.37-9.49,3.93-19.04,7.74-28.47,11.81-270.85,116.83-546.96,210.28-848.62,193.46.41,7.21,7.31,12.97,12.39,19.56,95.64,124.16,227.4,184.19,378.07,203.13,158.06,19.87,308.02-10.57,450.15-85.27,88.34-46.43,165.34-104.48,228.17-181.66ZM515.87,1205.87c-1.98-3.72-2.37-5.83-3.53-6.42-117.35-59.6-180.32-160.55-214.84-282.9-25.01-88.64-31.59-179.35-28.43-271,.57-16.68.84-33.25-13.56-45.01-12.71-10.38-26.83-14.81-43.17-7.86-20.15,8.57-27.6,24.42-27.59,45.15.02,68.87.16,137.75-.12,206.62-.2,48.44-25.15,78.34-72.29,84.87-15.9,2.2-23.25,7.86-22.34,24.32,4.15,75.33,22.47,146.22,67.4,208.03,39.68,54.58,95.22,84.35,161.72,80.5,65.82-3.81,130.83-18.9,196.75-36.31ZM1519.03,661.75c6.19-2.55,11-4.24,15.55-6.46,118.84-57.88,237.69-115.72,356.44-173.78,29.31-14.33,34.9-27.62,23.26-52.3-12.49-26.48-26.73-31.29-56.26-17.87-97.67,44.38-195.23,89.01-292.83,133.55-27.81,12.69-55.6,25.41-85.23,38.96,24.38,22.36,34.23,48.39,39.08,77.91ZM1362.4,665.46c20.7-15.95,37.68-21.06,53.25-5.22,17.22,17.52,7.5,34.62-6.43,51.99,33.32-9.03,47.61-25.31,45.76-49.21-1.69-21.8-19.38-40.12-41.21-42.71-22.75-2.69-40.45,11.02-51.37,45.15ZM81.51,1161.71c-32.27,39.86-26.69,60.97,19.14,75.9,14.15,4.61,28.62,9.84,47.49,6.59-27.56-25.09-48.31-52.54-66.63-82.49ZM277.67,402.63c-48.84.08-96.31-44.43-98.13-92.02-1.82-47.37,46.81-93.77,98.27-93.77,50.48,0,92.12,41.23,92.54,91.65.43,51.8-41.17,94.07-92.68,94.15ZM277.61,340.76c18.55-2.99,30.79-13.06,30.03-32.07-.75-18.75-13.05-30.17-31.93-29.23-17.42.87-28.67,12.34-28.65,30.04.02,19.03,12.19,28.81,30.56,31.25ZM494.74,0c51.81.12,93.26,42.16,92.52,93.83-.71,49.65-42.58,91.59-91.79,91.93-51.85.36-93.88-41.04-94-92.61C401.35,41.39,442.91-.12,494.74,0ZM525.39,92.8c-2.74-18.47-12.66-30.61-31.66-30.3-17.53.29-29.03,11.5-29.59,29.04-.61,18.9,10.97,30.95,29.67,31.48,19.01.53,28.85-11.87,31.58-30.21ZM587.2,394.13c8.57-57.84,40.45-102.98,75.48-146.81,3.63-4.55,9.83-8.04,3.1-14.68-11-10.86-21.71-22.01-32.93-32.64-5.12-4.85-11.19-4.78-15.62,1.18-38.28,51.42-76.58,102.81-88.54,168.14-6.15,33.59-6.39,33.55,30.26,33.55,7.73-5.04,25.56,9.41,28.25-8.74ZM222.15,1119.56c13.02,35.57,36.43,63.91,64.6,88.53,34.33,30,33.81,29.45,59.9-8.79,8.72-12.78,8.69-18.91-4.68-28.13-23.43-16.16-45.67-35.54-55.22-62.99-7.49-21.55-19.27-28.14-36.07-23.77-39.72,0-40.92,1.29-28.53,35.16ZM129.19,398.74H58.85v70.34h70.34v-70.34ZM468.86,439.39h-70.34v70.34h70.34v-70.34ZM435.46,710.65h-70.34v70.34h70.34v-70.34ZM621.5,989.7h-70.34v70.34h70.34v-70.34Z"/>
</svg>